<?xml version="1.0"?>
<svg width="118" height="158" xmlns="http://www.w3.org/2000/svg" xmlns:svg="http://www.w3.org/2000/svg" enable-background="new 0 0 118 158" version="1.1" xml:space="preserve">
 <style type="text/css">.st0{fill:#c20414;}
	.st1{fill:#FFFFFF;}</style>

 <g class="layer">
  <title>Layer 1</title>
  <path class="st0" d="m118,0l0,99.1c0,32.6 -26.4,58.9 -59,58.9s-59,-26.4 -59,-58.9l0,0l0,-99.1l118,0z" id="Container"/>
  <g id="Logo">
   <path class="st1" d="m70.1,54.2l0,29.5l0,4.3l0,12.8c0,7.3 -5.4,13.3 -12.1,13.3c-6.7,0 -12,-5.9 -12.1,-13.3l0,-12.8l0,-4.3l0,-29.5l-25.3,0l0,48.2l0,0c0,20.6 16.7,37.3 37.4,37.3c20.6,0 37.4,-16.7 37.4,-37.3l0,-48.2l-25.3,0z" id="svg_1"/>
   <text fill="#ff0000" font-family="Cursive" font-size="24" id="svg_2" stroke="null" stroke-dasharray="null" stroke-linecap="null" stroke-linejoin="null" stroke-opacity="null" stroke-width="0" text-anchor="middle" transform="rotate(90.3364, 83.0174, 83.2235) matrix(0.877428, 0, 0, 0.87883, 6.59542, 12.2867)" x="87.38" xml:space="preserve" y="90.63">EVIL</text>
  </g>
  <g id="svg_6"/>
  <g id="svg_7"/>
  <g id="svg_8"/>
  <g id="svg_9"/>
  <g id="svg_10"/>
  <g id="svg_11"/>
  <g id="svg_12"/>
  <g id="svg_13"/>
  <g id="svg_14"/>
  <g id="svg_15"/>
  <g id="svg_16"/>
  <g id="svg_17"/>
  <g id="svg_18"/>
  <g id="svg_19"/>
  <g id="svg_20"/>
 </g>
</svg>